# xmcd CD database file
#
# Track frame offsets:
#	150
#	22695
#	38765
#	60035
#	72342
#	86170
#	103370
#	119202
#	127787
#	139872
#	155567
#	166820
#	178690
#	193910
#	212880
#
# Disc length: 2968 seconds
#
# Revision: 0
# Processed by: cddbd v1.5.1PL0 Copyright (c) Steve Scherf et al.
# Submitted via: CDex 1.51
#
DISCID=d30b960f
DTITLE=波多野睦美・つのだたかし - アルフォンシーナと海
DYEAR=2003
DGENRE=Acoustic
TTITLE0=アルフォンシーナと海／A.ラミレス
TTITLE1=天使の死／A.ピアソラ
TTITLE2=オブリヴィオン／A.ピアソラ
TTITLE3=忘れる木／A.ヒナステラ
TTITLE4=ばらと柳／C.グアスタビーノ
TTITLE5=プレリュード／H.ヴィラ＝ロボス
TTITLE6=メロディア・センティメンタル／H.ヴィラ＝ロボス
TTITLE7=向こうの教会へ／M.ラヴェル
TTITLE8=サラバンド／F.プーランク
TTITLE9=愛の小径／F.プーランク
TTITLE10=屋根の上の空／R.ヴォーン・ウィリアムズ
TTITLE11=仔羊をさがして／R.ヴォーン・ウィリアムズ
TTITLE12=リンデン・リー／R.ヴォーン・ウィリアムズ
TTITLE13=小さな空／武満徹
TTITLE14=三月のうた／武満徹
EXTD=YEAR: 2003
EXTT0=
EXTT1=
EXTT2=
EXTT3=
EXTT4=
EXTT5=
EXTT6=
EXTT7=
EXTT8=
EXTT9=
EXTT10=
EXTT11=
EXTT12=
EXTT13=
EXTT14=
PLAYORDER=
